<?xml version="1.0" standalone="no"?>
<!DOCTYPE svg PUBLIC "-//W3C//DTD SVG 20010904//EN"
 "http://www.w3.org/TR/2001/REC-SVG-20010904/DTD/svg10.dtd">
<svg version="1.0" xmlns="http://www.w3.org/2000/svg"
 width="413.000000pt" height="413.000000pt" viewBox="0 0 413.000000 413.000000"
 preserveAspectRatio="xMidYMid meet">
<metadata>
Created by potrace 1.11, written by Peter Selinger 2001-2013
</metadata>
<g transform="translate(0.000000,413.000000) scale(0.100000,-0.100000)"
fill="#000000" stroke="none">
<path d="M1088 4074 c-257 -46 -477 -202 -589 -416 -103 -200 -128 -535 -57
-767 42 -136 152 -330 282 -495 l46 -59 0 -439 c0 -476 1 -484 55 -526 61 -48
146 -32 192 37 23 33 23 39 23 330 l0 295 60 -59 60 -59 0 -721 c0 -547 3
-724 12 -733 15 -15 61 -15 76 0 9 9 12 175 12 687 l0 674 25 -23 25 -23 0
-498 c0 -286 4 -508 9 -522 17 -44 51 -67 99 -67 54 0 77 12 97 50 13 24 15
91 15 425 0 217 3 395 8 394 4 0 124 -107 267 -238 l260 -238 70 64 70 64 5
-561 c4 -484 7 -562 20 -570 22 -14 47 -12 64 6 14 14 16 84 16 618 l0 603 23
21 c13 12 26 22 30 22 4 0 7 -175 7 -389 l0 -390 26 -20 c34 -26 54 -26 88 0
l26 20 0 458 0 459 118 108 c583 540 858 856 998 1149 64 133 80 194 96 348 9
91 9 144 0 230 -16 147 -34 213 -88 324 -99 201 -289 348 -535 415 -118 32
-315 32 -443 0 -168 -42 -372 -156 -513 -286 -39 -36 -75 -66 -80 -66 -5 0
-25 16 -44 36 -18 20 -77 68 -129 108 -256 193 -532 269 -802 220z m293 -343
c102 -26 160 -53 259 -119 113 -76 238 -202 340 -345 46 -64 87 -114 90 -110
4 5 40 55 81 113 217 310 512 495 759 476 121 -9 247 -60 332 -136 134 -118
186 -408 112 -630 -66 -198 -241 -429 -593 -780 -166 -166 -561 -535 -668
-624 l-31 -26 -239 217 c-441 401 -757 732 -909 949 -66 94 -137 238 -155 314
-18 73 -18 280 0 350 41 165 135 269 296 329 120 45 213 51 326 22z"/>
</g>
</svg>
